<svg xmlns="http://www.w3.org/2000/svg" style="display:none"><symbol id="icon-add" viewBox="0 0 24 24"><path d="M24 13.714H13.714V24h-3.429V13.714H-.001v-3.429h10.286V-.001h3.429v10.286H24v3.429z"/></symbol><symbol id="icon-arrow-double" viewBox="0 0 24 24"><path d="M11.2 12L0 2l1.7-2L15 12 1.7 24 0 22.2 11.2 12zM9 22.2l1.7 1.8L24 12 10.8 0 9.1 2l11.1 10L9 22.2z"/></symbol><symbol id="icon-arrow" viewBox="0 0 24 24"><path d="M4.738 2.8L7.405 0l11.429 12L7.405 24l-2.667-2.8L13.5 12z"/></symbol><symbol id="icon-avatar" viewBox="0 0 24 24"><path d="M12 23.943c6.373 0 11.538-5.166 11.538-11.538S18.372.867 12 .867C5.627.867.462 6.033.462 12.405S5.628 23.943 12 23.943zm-6.866-3.442a10.591 10.591 0 0 1-3.749-8.096C1.385 6.542 6.138 1.79 12 1.79s10.615 4.753 10.615 10.615c0 3.244-1.456 6.149-3.749 8.096a7.88 7.88 0 0 0-6.867-4.069c-2.796-.002-5.466 1.534-6.866 4.069zm2.829-8.903c0 2.255 1.806 4.085 4.037 4.086s4.037-1.83 4.037-4.086c0-2.255-1.807-4.085-4.037-4.085s-4.037 1.83-4.037 4.085z"/></symbol><symbol id="icon-calendar-term" viewBox="-401 277 24 24"><path d="M-379.4 293.3c.4-.1.8-.3 1.3-.4.5-.2 1 .2 1.1.7.1.5-.2 1-.7 1.1-1.1.4-2.2.7-3.3 1.1-.5.2-1.1-.1-1.2-.6-.3-1.1-.7-2.2-1.1-3.3-.2-.6.1-1.2.8-1.3.3 0 .8.2.9.6.2.4.3.9.5 1.3.2-.4.3-.8.5-1.3s.3-1.1.4-1.7c.1-.6.1-1.2.1-1.8 0-1-.3-1.9-.6-2.8-.4-.9-.9-1.8-1.5-2.5-.7-.9-1.6-1.7-2.7-2.2-.8-.5-1.7-.8-2.7-1-.4-.1-.9-.1-1.3-.2h-.9c-1.1 0-2.2.2-3.2.6-.8.3-1.6.7-2.3 1.3-.7.5-1.2 1.1-1.8 1.7-.7.9-1.2 1.9-1.6 3-.2.5-.2 1-.3 1.5-.1.6-.1 1.2-.1 1.8.1 1 .3 2 .7 3 .4.9.9 1.7 1.5 2.5.9 1.1 2 1.9 3.2 2.5.8.4 1.7.7 2.6.8.4.1.9.1 1.3.1.3 0 .6.1.8.3.3.2.4.6.3 1-.1.4-.4.6-.8.6-.5 0-1.1 0-1.6-.1-1-.1-2-.4-2.9-.8-.9-.4-1.8-.9-2.6-1.5-.4-.3-.7-.6-1.1-.9-1.3-1.3-2.2-2.9-2.8-4.6-.2-.6-.3-1.3-.4-1.9-.1-.6-.1-1.3-.1-1.9 0-.5.1-1 .2-1.6.1-.9.4-1.7.8-2.5s.8-1.6 1.4-2.4c.4-.5.9-1 1.4-1.5.6-.5 1.2-1 1.9-1.4.9-.5 1.9-.9 2.9-1.2.5-.1 1.1-.2 1.6-.3.6-.1 1.1-.1 1.7-.1.9 0 1.8.2 2.7.4 1.3.4 2.5 1 3.6 1.8.6.5 1.2 1 1.7 1.6.8.9 1.4 1.8 1.9 2.9.3.8.6 1.6.8 2.4.1.4.1.9.2 1.3v1.3c0 .6-.1 1.2-.2 1.7-.1.7-.3 1.4-.6 2.1-.2.3-.3.5-.4.8z"/><path d="M-392 284.7v-1h1v.9h4v-1h1l.1.1v.8h.7c.4 0 .8.5.8.9v6.8c0 .5-.5 1-1 1h-7.1c-.4 0-.9-.4-.9-.9v-6.8c0-.2 0-.3.1-.5.2-.4.5-.6 1-.6 0 .3.1.3.3.3zm6.1 7.7v-4.8h-6.6v4.8h6.6z"/><path d="M-386.2 291h-2.4v-2.4h2.4v2.4z"/></symbol><symbol id="icon-calendar" viewBox="0 0 24 24"><path d="M18 13.2h-6v6h6v-6zM16.8 0v2.4H7.2V0H4.8v2.4H3.6c-1.32 0-2.4 1.08-2.4 2.4v16.8c0 1.32 1.08 2.4 2.4 2.4h16.8c1.32 0 2.4-1.08 2.4-2.4V4.8c0-1.32-1.08-2.4-2.4-2.4h-1.2V0h-2.4zm3.6 21.6H3.6V8.4h16.8v13.2z"/></symbol><symbol id="icon-cards" viewBox="0 0 24 24"><path d="M0 11.294h7.059V2.823H0v8.471zm0 9.882h7.059v-8.471H0v8.471zm8.471 0h7.059v-8.471H8.471v8.471zm8.47 0H24v-8.471h-7.059v8.471zm-8.47-9.882h7.059V2.823H8.471v8.471zm8.47-8.47v8.471H24V2.824h-7.059z"/></symbol><symbol id="icon-check" viewBox="-87 89 24 24"><path d="M-84.7 101.8c-.9.9-.9 2.3 0 3.2l4 4c.9.9 2.3.9 3.2 0l12.8-12.8c.9-.9.9-2.3 0-3.2-.9-.9-2.3-.9-3.2 0l-11.2 11.2-2.3-2.3c-.9-1-2.4-1-3.3-.1z"/></symbol><symbol id="icon-clear" viewBox="-387 629 24 24"><path d="M-375 629c-6.6 0-12 5.4-12 12s5.4 12 12 12 12-5.4 12-12-5.4-12-12-12zm6.2 16.7l-1.5 1.5-4.7-4.7-4.7 4.7-1.5-1.5 4.7-4.7-4.7-4.7 1.5-1.5 4.7 4.7 4.7-4.7 1.5 1.5-4.7 4.7 4.7 4.7z"/></symbol><symbol id="icon-clock" viewBox="0 0 24 24"><path d="M.409 8.894c-1.708 6.375 2.11 12.989 8.485 14.697s12.989-2.11 14.697-8.485c1.708-6.375-2.11-12.989-8.485-14.697S2.117 2.519.409 8.894zm20.864 5.591c-1.367 5.1-6.657 8.155-11.758 6.788S1.36 14.616 2.727 9.515c1.367-5.1 6.657-8.155 11.758-6.788s8.155 6.657 6.788 11.758zM6.36 9.868l-.466 1.739 6.955 1.863 5.324-5.034-1.258-1.331-4.527 4.377-6.027-1.615z"/></symbol><symbol id="icon-close" viewBox="-387 629 24 24"><path d="M-375 642.7l-7.3 7.3-1.7-1.7 7.3-7.3-7.3-7.3 1.7-1.7 7.3 7.3 7.3-7.3 1.7 1.7-7.3 7.3 7.3 7.3-1.7 1.7-7.3-7.3z"/></symbol><symbol id="icon-delete" viewBox="0 0 24 24"><path d="M0 9.429h24v5.143H0V9.429z"/></symbol><symbol id="icon-document" viewBox="0 0 24 24"><path d="M14.182 0h-9.6c-1.32 0-2.4 1.08-2.4 2.4v19.2c0 1.32 1.08 2.4 2.4 2.4h14.4c1.32 0 2.4-1.08 2.4-2.4V7.2l-7.2-7.2zm2.4 14.4h-9.6V12h9.6v2.4zm-2.4 4.8h-7.2v-2.4h7.2v2.4zm-1.2-10.8V1.8l6.6 6.6h-6.6z"/></symbol><symbol id="icon-edit" viewBox="0 0 24 24"><path d="M0 18.933V24h5.067L19.734 9.2l-5.067-5.067L0 18.933zm23.6-13.6a1.29 1.29 0 0 0 0-1.867L20.533.399a1.29 1.29 0 0 0-1.867 0l-2.4 2.4 5.067 5.067L23.6 5.333z"/></symbol><symbol id="icon-email" viewBox="0 0 24 24"><path d="M21.6 2.4H2.4C1.08 2.4 0 3.48 0 4.8v14.4c0 1.32 1.08 2.4 2.4 2.4h19.2c1.32 0 2.4-1.08 2.4-2.4V4.8c0-1.32-1.08-2.4-2.4-2.4zm0 4.8l-9.6 6-9.6-6V4.8l9.6 6 9.6-6v2.4z"/></symbol><symbol id="icon-error" viewBox="0 0 24 24"><path d="M11.561 23.019h-.028c-1.435 0-2.6-1.136-2.6-2.538s1.165-2.541 2.6-2.541h.028c1.435 0 2.6 1.138 2.6 2.541s-1.165 2.538-2.6 2.538zM15.288 3.66c-.172 2.538-1.357 10.075-1.357 10.075 0 1.272-1.066 2.303-2.365 2.303h-.04c-1.302 0-2.368-1.031-2.368-2.303 0 0-1.185-7.537-1.353-10.075C7.72 2.391 8.714.033 11.526.033c.006 0 .013.003.02.003s.014-.003.02-.003c2.81 0 3.807 2.357 3.721 3.627z"/></symbol><symbol id="icon-export" viewBox="-3 5 24 24"><path d="M12 19v-4c-5.4 0-9.8 2.2-11 6 0 0-.2-11 11-11V6l9 6.7-9 6.3zm6-1.2L15 20v5H0V10h4c1.2-.8 3.6-1.7 5-2V7H-.3C-1.8 6.9-3 8.1-3 9.6v15.7C-3 26.8-1.8 28-.3 28h15.7c1.5 0 2.7-1.2 2.7-2.7l-.1-7.5z"/></symbol><symbol id="icon-favorites" viewBox="-387 629 24 24"><path d="M-367.9 652.1l-7.2-3.8-7.2 3.8 1.4-8-5.8-5.7 8.1-1.2 3.6-7.3 3.6 7.3 8.1 1.2-5.8 5.7 1.2 8z"/></symbol><symbol id="icon-filter" viewBox="0 0 24 24"><path d="M9.102 11.341c.24.274.372.632.372 1.002v10.914c0 .657.755.99 1.202.528l2.9-3.489c.388-.489.602-.731.602-1.215v-6.736c0-.37.134-.728.372-1.003l8.32-9.479c.623-.711.143-1.864-.778-1.864H1.563C.641-.001.159 1.15.785 1.863l8.32 9.477z"/></symbol><symbol id="icon-folder-closed" viewBox="0 0 24 24"><path d="M9.6 0H2.4C1.08 0 0 1.35 0 3v18c0 1.65 1.08 3 2.4 3h19.2c1.32 0 2.4-1.35 2.4-3V6c0-1.65-1.08-3-2.4-3H12L9.6 0z"/></symbol><symbol id="icon-folder-open" viewBox="-3 5 24 24"><path d="M21 14.5L16.6 27H-2c-.6 0-1-.4-1-1V8c0-.6.4-1 1-1h6.6L7 10h8.6c.6 0 1 .4 1 1v1.5H.1l-3 12.3 4.8-10.3H21z"/></symbol><symbol id="icon-graduation" viewBox="0 0 24 24"><path d="M4.364 13.127v4.364L12 21.636l7.636-4.145v-4.364L12 17.272l-7.636-4.145zM12 2L0 8.545l12 6.545 9.818-5.345v7.527H24V8.545L12 2z"/></symbol><symbol id="icon-group" viewBox="0 0 24 24"><path d="M16.174 13.391c-1.565 0-2.817.417-3.757.939 1.461 1.252 2.087 2.713 2.191 2.817l.104.209v2.296h8.348v-2.087c-.104 0-1.774-4.174-6.887-4.174zm0-2.087a3.652 3.652 0 1 0 0-7.304 3.652 3.652 0 0 0 0 7.304zM3.13 7.652C3.13 5.669 4.8 4 6.782 4s3.652 1.67 3.652 3.652c0 1.983-1.67 3.652-3.652 3.652S3.13 9.634 3.13 7.652zm3.653 5.739C1.67 13.391 0 17.565 0 17.565v2.087h13.565v-2.087s-1.67-4.174-6.783-4.174z"/></symbol><symbol id="icon-help" viewBox="0 0 24 24"><path d="M8.6 15.6v-2.5c0-1 .8-1.8 1.7-2 2.4-.3 4.8-1.2 4.8-4.2 0-1.9-1-2.9-2.6-2.9-.9 0-1.6.2-2.2.4-.3.1-.4.2-.4.6l-.1.8c-.1.8-.7 1.3-1.5 1.4l-1 .1c-.9 0-1.7-.7-1.7-1.6V3.6c0-1.4.9-2.6 2.2-2.9C9.4.3 11 0 12.7 0c4.3 0 7.9 1.5 7.9 6.7 0 3.7-2 6.4-5.8 7.3-.7.2-1.3.8-1.3 1.6 0 .9-.7 1.6-1.6 1.6h-1.7c-.9 0-1.6-.7-1.6-1.6zm2.5 8.3c-1.9 0-2.8-.8-2.8-2.5s.9-2.5 2.8-2.5c1.8 0 2.8.9 2.8 2.5s-1 2.5-2.8 2.5z"/></symbol><symbol id="icon-hide" viewBox="0 0 24 24"><path d="M12 5.864c3.055 0 5.455 2.4 5.455 5.455 0 .655-.109 1.418-.436 1.964l3.164 3.164c1.636-1.418 2.945-3.164 3.709-5.127-1.855-4.8-6.545-8.182-12-8.182-1.527 0-2.945.327-4.364.764l2.4 2.4c.655-.327 1.418-.436 2.073-.436zM1.091 2.918l2.945 2.945C2.181 7.281.763 9.136 0 11.318c1.855 4.8 6.545 8.182 12 8.182 1.636 0 3.273-.327 4.8-.873l3.6 3.6 1.418-1.418L2.509 1.5 1.091 2.918zm6 6l1.636 1.636v.764c0 1.855 1.418 3.273 3.273 3.273.218 0 .436 0 .764-.109l1.636 1.636c-.764.436-1.527.655-2.4.655-3.055 0-5.455-2.4-5.455-5.455 0-.873.218-1.636.545-2.4zm4.691-.873l3.382 3.382v-.218c0-1.855-1.418-3.273-3.273-3.273 0 .109 0 .109-.109.109z"/></symbol><symbol id="icon-home" viewBox="0 0 24 24"><path d="M9.6 21.9v-7.2h4.8v7.2h6v-9.6H24L12 1.5 0 12.3h3.6v9.6h6z"/></symbol><symbol id="icon-image" viewBox="0 0 24 24"><path d="M24 21.333V2.666c0-1.467-1.2-2.667-2.667-2.667H2.666A2.675 2.675 0 0 0-.001 2.666v18.667C-.001 22.8 1.199 24 2.666 24h18.667C22.8 24 24 22.8 24 21.333zM7.333 14l3.333 4 4.667-6 6 8H2.666l4.667-6z"/></symbol><symbol id="icon-info" viewBox="-140 235.6 24 24"><path d="M-123 257.4v.2c0 1.1-.9 2-2 2h-5c-1.1 0-2-.9-2-2v-.2c0-1.1.9-2 2-2v-8.3c-1.1 0-2-.9-2-2v-.2c0-1.1.9-2 2-2h3c1.1 0 2 .9 2 2v10.5c1.1 0 2 .9 2 2zm-4-16.6c1.1 0 2-.9 2-2v-1.2c0-1.1-.9-2-2-2h-2c-1.1 0-2 .9-2 2v1.2c0 1.1.9 2 2 2h2z"/></symbol><symbol id="icon-list" viewBox="-387 629 24 24"><path d="M-387.1 644h5.7v-6h-5.7v6zm0 7.3h5.7v-5.9h-5.7v5.9zm0-14.7h5.7v-5.9h-5.7v5.9zm7.1 7.4h17v-6h-17v6zm0 7.3h17v-5.9h-17v5.9zm0-20.6v5.9h17v-5.9h-17z"/></symbol><symbol id="icon-location" viewBox="0 0 24 24"><path d="M11.9 0C7.22 0 3.5 3.72 3.5 8.4c0 6.24 8.4 15.6 8.4 15.6s8.4-9.36 8.4-15.6c0-4.68-3.72-8.4-8.4-8.4zm0 11.4c-1.68 0-3-1.32-3-3s1.32-3 3-3 3 1.32 3 3-1.32 3-3 3z"/></symbol><symbol id="icon-menu" viewBox="0 0 32 32"><path d="M4 10h24a2 2 0 0 0 0-4H4a2 2 0 0 0 0 4zm24 4H4a2 2 0 0 0 0 4h24a2 2 0 0 0 0-4zm0 8H4a2 2 0 0 0 0 4h24a2 2 0 0 0 0-4z"/></symbol><symbol id="icon-more" viewBox="0 0 24 24"><path d="M3 9c-1.65 0-3 1.35-3 3s1.35 3 3 3 3-1.35 3-3-1.35-3-3-3zm18 0c-1.65 0-3 1.35-3 3s1.35 3 3 3 3-1.35 3-3-1.35-3-3-3zm-9 0c-1.65 0-3 1.35-3 3s1.35 3 3 3 3-1.35 3-3-1.35-3-3-3z"/></symbol><symbol id="icon-new-document" viewBox="0 0 24 24"><path d="M4.8 0C3.48 0 2.4 1.08 2.4 2.4v19.2c0 1.32 1.08 2.4 2.4 2.4h14.4c1.32 0 2.4-1.08 2.4-2.4V7.2L14.4 0H4.8zm8.4 8.4V1.8l6.6 6.6h-6.6z"/></symbol><symbol id="icon-notification" viewBox="0 0 24 24"><path d="M11.929 24c2.794 0 5.079-1.964 5.079-4.364H6.849c0 2.4 2.286 4.364 5.079 4.364zm8.739-7.829V9.818c0-3.581-2.824-6.468-6.723-7.277v-.809c0-.924-.941-1.733-2.017-1.733S9.911.808 9.911 1.732v.809c-3.899.809-6.723 3.696-6.723 7.277v6.353l-2.689 2.31v1.155h22.857v-1.155l-2.689-2.31z"/></symbol><symbol id="icon-print" viewBox="-3 5 24 24"><path d="M15 11H3V7h12v4zm-18 9.3v-5.7c0-1.5 1.2-2.7 2.7-2.7h18.7c1.5 0 2.7 1.2 2.7 2.7v5.7c0 1.5-1.2 2.7-2.7 2.7H16v4H2v-4H-.3C-1.8 23-3 21.8-3 20.3zM16 16h2v-2h-2v2zM4 25h10v-5H4v5z"/></symbol><symbol id="icon-radio" viewBox="-27 29 24 24"><circle cx="-15" cy="41" r="5.8"/></symbol><symbol id="icon-refresh" viewBox="0 0 24 24"><path d="M12.6 0C8.4 0 4.68 2.4 2.76 6.063L0 3.158v8.211h7.8L4.44 7.832C6 4.674 9 2.527 12.6 2.527c4.92 0 9 4.295 9 9.474s-4.08 9.474-9 9.474c-3.96 0-7.2-2.653-8.52-6.316H1.56c1.32 5.053 5.76 8.842 11.04 8.842 6.36 0 11.4-5.432 11.4-12s-5.16-12-11.4-12z"/></symbol><symbol id="icon-save" viewBox="0 0 24 24"><path d="M18.667 0h-16A2.675 2.675 0 0 0 0 2.667v18.667c0 1.467 1.2 2.667 2.667 2.667h18.667c1.467 0 2.667-1.2 2.667-2.667v-16L18.668.001zM12 21.333c-2.267 0-4-1.733-4-4s1.733-4 4-4 4 1.733 4 4-1.733 4-4 4zM16 8H2.667V2.667H16V8z"/></symbol><symbol id="icon-search" viewBox="0 0 24 24"><path d="M16.667 14.667H15.6l-.4-.4c1.333-1.467 2.133-3.467 2.133-5.6 0-4.8-3.867-8.667-8.667-8.667S-.001 3.867-.001 8.667a8.65 8.65 0 0 0 8.667 8.667c2.133 0 4.133-.8 5.6-2.133l.4.4v1.067l6.667 6.667 2-2-6.667-6.667zm-8 0c-3.333 0-6-2.667-6-6s2.667-6 6-6 6 2.667 6 6-2.667 6-6 6z"/></symbol><symbol id="icon-settings" viewBox="0 0 24 24"><path d="M20.567 13.2c0-.36.12-.72.12-1.2s0-.84-.12-1.2l2.52-2.04c.24-.24.24-.48.12-.72l-2.4-4.2c-.12-.12-.36-.24-.72-.12l-3 1.2c-.6-.48-1.32-.84-2.04-1.2L14.567.6c.12-.36-.24-.6-.48-.6h-4.8c-.24 0-.6.24-.6.48l-.48 3.24c-.72.24-1.32.72-2.04 1.2l-2.88-1.2c-.36-.12-.6 0-.84.24l-2.4 4.2c-.12.12 0 .48.24.72l2.52 1.92c0 .36-.12.72-.12 1.2s0 .84.12 1.2l-2.52 2.04c-.24.24-.24.48-.12.72l2.4 4.2c.12.12.36.24.72.12l3-1.2c.6.48 1.32.84 2.04 1.2l.48 3.12c0 .24.24.48.6.48h4.8c.24 0 .6-.24.6-.48l.48-3.12c.72-.36 1.44-.72 2.04-1.2l3 1.2c.24.12.6 0 .72-.24l2.4-4.2c.12-.24.12-.6-.12-.72l-2.76-1.92zm-8.88 3c-2.28 0-4.2-1.92-4.2-4.2s1.92-4.2 4.2-4.2c2.28 0 4.2 1.92 4.2 4.2s-1.92 4.2-4.2 4.2z"/></symbol><symbol id="icon-share" viewBox="0 0 24 24"><path d="M19 8.4c-.96 0-1.8.36-2.4.96L8.08 4.44c.12-.24.12-.6.12-.84C8.2 1.56 6.64 0 4.6 0S1 1.56 1 3.6s1.56 3.6 3.6 3.6c.96 0 1.8-.36 2.4-.96l8.52 4.92c-.12.24-.12.6-.12.84s0 .6.12.84L7 17.88c-.6-.6-1.44-.96-2.4-.96-1.92 0-3.48 1.56-3.48 3.48s1.56 3.48 3.48 3.48 3.48-1.56 3.48-3.48c0-.24 0-.48-.12-.84l8.52-5.04c.6.6 1.44.96 2.4.96 2.04 0 3.6-1.56 3.6-3.6S21.04 8.4 19 8.4z"/></symbol><symbol id="icon-skip" viewBox="-3 5 24 24"><path d="M0 7.8L2.7 5l11.4 12L2.7 29 0 26.2 8.8 17 0 7.8zM14.1 5h4v24h-4V5z"/></symbol><symbol id="icon-sort" viewBox="-3 5 24 24"><path d="M14.8 20.1l1.8 1.7L9 29l-7.6-7.2 1.8-1.7L9 25.6l5.8-5.5zM3.2 13.9l-1.8-1.7L9 5l7.6 7.2-1.8 1.7L9 8.4l-5.8 5.5z"/></symbol><symbol id="icon-swap" viewBox="0 0 24 24"><path d="M18.24 6.88H9.28v2.56h8.96v3.84l5.12-5.12-5.12-5.12v3.84zM.32 15.84l5.12 5.12v-3.84h8.96v-2.56H5.44v-3.84L.32 15.84z"/></symbol><symbol id="icon-view" viewBox="0 0 24 24"><path d="M12 3.5c-5.455 0-10.145 3.382-12 8.182 1.855 4.8 6.545 8.182 12 8.182s10.145-3.382 12-8.182C22.145 6.882 17.455 3.5 12 3.5zm0 13.636c-3.055 0-5.455-2.4-5.455-5.455S8.945 6.226 12 6.226s5.455 2.4 5.455 5.455-2.4 5.455-5.455 5.455zm0-8.727c-1.855 0-3.273 1.418-3.273 3.273s1.418 3.273 3.273 3.273c1.855 0 3.273-1.418 3.273-3.273S13.855 8.409 12 8.409z"/></symbol><symbol id="icon-warning" viewBox="-3 5 24 24"><path d="M20.5 24.5L11.4 6.9c-1-2-3.8-2-4.8 0l-9.1 17.5c-1 1.8.4 4 2.4 4h18.2c2 .1 3.4-2.1 2.4-3.9zM9 25.6c-.9 0-1.7-.7-1.7-1.6 0-.9.7-1.6 1.6-1.6.9 0 1.6.7 1.6 1.6s-.6 1.6-1.5 1.6zm1.5-5.8c0 .8-.7 1.5-1.5 1.5s-1.5-.7-1.5-1.5c0 0-.7-4.8-.9-6.4-.1-.8.6-2.3 2.4-2.3 1.8 0 2.4 1.5 2.4 2.3-.1 1.6-.9 6.4-.9 6.4z"/></symbol></svg>